<svg width="62" height="62" viewBox="0 0 62 62" fill="none" xmlns="http://www.w3.org/2000/svg">
<path fill-rule="evenodd" clip-rule="evenodd" d="M31 34.875C33.7405 34.875 36.3689 33.7863 38.3067 31.8484C40.2446 29.9106 41.3333 27.2822 41.3333 24.5417C41.3333 21.8011 40.2446 19.1728 38.3067 17.2349C36.3689 15.297 33.7405 14.2083 31 14.2083C28.2594 14.2083 25.6311 15.297 23.6932 17.2349C21.7553 19.1728 20.6666 21.8011 20.6666 24.5417C20.6666 27.2822 21.7553 29.9106 23.6932 31.8484C25.6311 33.7863 28.2594 34.875 31 34.875ZM31 32.2917C32.0177 32.2917 33.0255 32.0912 33.9658 31.7017C34.906 31.3123 35.7604 30.7414 36.48 30.0217C37.1997 29.3021 37.7706 28.4477 38.16 27.5075C38.5495 26.5672 38.75 25.5594 38.75 24.5417C38.75 23.5239 38.5495 22.5161 38.16 21.5759C37.7706 20.6356 37.1997 19.7812 36.48 19.0616C35.7604 18.3419 34.906 17.7711 33.9658 17.3816C33.0255 16.9921 32.0177 16.7917 31 16.7917C28.9445 16.7917 26.9733 17.6082 25.5199 19.0616C24.0665 20.515 23.25 22.4862 23.25 24.5417C23.25 26.5971 24.0665 28.5683 25.5199 30.0217C26.9733 31.4752 28.9445 32.2917 31 32.2917Z" fill="url(#paint0_linear_1_84)"/>
<path fill-rule="evenodd" clip-rule="evenodd" d="M56.8333 31C56.8333 45.2678 45.2677 56.8333 31 56.8333C16.7322 56.8333 5.16663 45.2678 5.16663 31C5.16663 16.7323 16.7322 5.16667 31 5.16667C45.2677 5.16667 56.8333 16.7323 56.8333 31ZM43.4387 50.6462C39.7204 53.0079 35.4048 54.2582 31 54.25C26.4899 54.2582 22.0759 52.9472 18.3016 50.4783C17.9916 50.0908 17.6773 49.6904 17.3587 49.2771C16.9891 48.793 16.7898 48.2005 16.7916 47.5915C16.7916 46.2003 17.7914 45.034 19.1283 44.8389C27.9697 43.5473 34.0573 43.6583 42.9104 44.8841C43.5512 44.9778 44.1366 45.2998 44.5588 45.7909C44.981 46.2819 45.2117 46.909 45.2083 47.5566C45.2083 48.1766 44.9952 48.7785 44.6103 49.2487C44.2133 49.7317 43.8228 50.1976 43.4387 50.6462ZM47.7723 47.1019C47.5656 44.6839 45.7301 42.6663 43.2643 42.3253C34.202 41.0711 27.8677 40.951 18.755 42.2827C16.275 42.6444 14.4473 44.68 14.2303 47.1045C10.065 42.7788 7.74175 37.0051 7.74996 31C7.74996 18.1595 18.1595 7.75 31 7.75C43.8404 7.75 54.25 18.1595 54.25 31C54.2582 37.0038 51.9359 42.7764 47.7723 47.1019Z" fill="url(#paint1_linear_1_84)"/>
<defs>
<linearGradient id="paint0_linear_1_84" x1="31" y1="14.2083" x2="31" y2="34.875" gradientUnits="userSpaceOnUse">
<stop stop-color="#1E1E1E"/>
<stop offset="1" stop-color="#A10005"/>
</linearGradient>
<linearGradient id="paint1_linear_1_84" x1="31" y1="5.16667" x2="31" y2="56.8333" gradientUnits="userSpaceOnUse">
<stop stop-color="#1E1E1E"/>
<stop offset="1" stop-color="#A10005"/>
</linearGradient>
</defs>
</svg>
