<svg width="1920" height="800" viewBox="0 0 1920 800" fill="none" xmlns="http://www.w3.org/2000/svg">
<path d="M5.02875 58.1135C10.3423 62.5026 17.4403 68.5453 26.9048 76.8801C33.1962 82.2568 39.9808 88.865 45.9531 95.6629C46.1319 95.8665 46.3117 96.071 46.4912 96.2752C51.758 102.238 57.2136 108.768 64.9663 116.955C65.9576 117.997 66.9913 119.072 68.0741 120.171C69.4617 121.581 70.9372 123.046 72.5143 124.563C78.494 130.831 84.7728 137.93 89.6462 146.065C90.5705 147.595 91.4484 149.125 92.3272 150.711C97.1949 158.6 101.491 165.353 103.412 169.196C105.399 173.185 105.137 173.533 105.472 174.933C107.961 185.198 108.893 205.204 112.326 223.937C113.625 230.353 114.787 235.309 115.59 238.683C120.154 257.885 124.806 277.41 129.646 298.731C133.385 315.08 137.903 333.559 146.566 355.088C148.506 359.878 150.641 364.747 152.887 369.485C154.706 373.325 154.624 377.074 152.707 378.135C150.796 379.196 147.756 377.124 145.882 373.182C143.621 368.423 141.457 363.541 139.493 358.727C139.484 358.705 139.475 358.683 139.466 358.661C130.313 336.053 125.7 316.995 121.895 300.395C117.155 279.527 112.616 260.503 108.132 241.783C107.24 238.059 105.916 232.452 104.447 225.116C100.919 205.195 99.9294 185.403 97.8063 176.905C97.659 176.288 98.3665 176.878 96.6501 173.32C95.0055 169.931 90.7669 163.247 85.863 155.336C84.9389 153.637 84.032 152.028 83.0557 150.398C78.871 143.332 73.0916 136.693 67.4536 130.766C65.1843 128.597 63.1318 126.544 61.2378 124.596C60.1693 123.496 59.1548 122.429 58.1846 121.398C58.162 121.373 58.1395 121.349 58.1169 121.324C50.2737 112.943 45.0771 106.667 40.048 100.966C39.9405 100.846 39.8332 100.727 39.7261 100.607C33.8752 93.9362 27.4182 87.6443 21.5763 82.6652C11.8429 74.0763 4.94311 68.3091 0.0536499 64.2669C-1.62809 62.8516 -1.78454 60.5046 -0.507059 58.7294C0.77449 56.9633 3.18051 56.5674 5.02875 58.1135ZM985.718 513.805C993.307 512.848 1001.95 512.498 1011.02 512.551C1023.57 512.619 1036.57 513.688 1048.64 515.387C1069.4 518.217 1086.71 523.444 1093.74 526.717C1100.02 529.221 1103.19 531.531 1117.57 535.268C1118.95 535.619 1120.56 536.061 1122.34 536.584C1124.46 537.206 1126.81 537.941 1129.34 538.771C1137.76 541.507 1147.82 545.336 1160.49 549.584C1161.8 550.018 1163.13 550.442 1164.46 550.852C1169.86 552.965 1181.8 562.993 1190.34 571.473C1207.59 587.342 1222.11 592.936 1226.43 596.378C1226.92 596.71 1227.32 596.99 1227.62 597.207C1230.05 599.085 1232.37 600.84 1234.58 602.492C1234.59 602.496 1234.59 602.5 1234.6 602.503C1246.15 611.101 1254.97 617.189 1262.75 623.585C1265.12 625.528 1267.45 627.401 1269.75 629.23C1278.84 636.754 1287.85 645.026 1299.25 655.053C1302.19 657.638 1305.53 660.281 1309.23 662.914C1331.09 677.33 1351.3 684.084 1364.37 689.301C1366.96 690.456 1369.39 691.399 1371.64 692.189C1373.1 692.699 1374.56 693.178 1375.99 693.629C1388.48 697.555 1400.3 699.539 1410.59 703.223C1422.24 708.556 1434.6 710.377 1443.69 711.484C1455.55 712.891 1464.9 714.229 1474.19 716.171C1486.53 718.795 1498.79 720.223 1509.23 720.877C1515.04 721.258 1520.25 721.481 1524.97 721.701C1533.34 722.073 1540.36 722.48 1547.03 722.942C1550.37 723.166 1553.55 723.326 1556.72 723.418C1573.09 723.881 1588.09 723.841 1602.55 722.695C1616.4 721.866 1633.04 717.937 1638.06 717.264C1641.29 716.848 1649.53 717.018 1656.24 717.163C1663.11 717.321 1669.34 717.509 1674.83 717.723C1676.67 717.804 1678.41 717.899 1680.07 718.005C1696.93 719.089 1706.29 721.211 1713.01 722.731C1715.02 723.194 1716.83 723.617 1718.5 723.953C1733.42 726.973 1747.18 728.63 1762.53 731.344C1765.89 731.953 1769.28 732.626 1772.4 733.394C1773.81 733.75 1775.14 734.091 1775.96 734.355C1776.39 734.488 1776.69 734.603 1776.7 734.659C1776.7 734.704 1776.49 734.738 1775.11 734.386C1782.6 736.966 1788.32 738.581 1793.18 739.854C1796.13 740.628 1798.75 741.273 1801.25 741.916C1801.3 741.927 1801.35 741.937 1801.39 741.948C1801.74 742.038 1802.08 742.13 1802.43 742.221C1802.69 742.289 1802.95 742.35 1803.21 742.419C1803.32 742.42 1803.42 742.431 1803.49 742.435C1803.55 742.439 1803.6 742.443 1803.63 742.445C1803.63 742.444 1803.64 742.443 1803.64 742.442C1804.17 742.485 1804.6 742.591 1804.69 742.611C1804.84 742.648 1804.98 742.69 1805.04 742.709C1805.41 742.813 1805.87 742.976 1806.17 743.084C1806.95 743.366 1808.31 743.873 1810.42 744.707C1812.29 745.358 1814.12 745.921 1816.45 746.654C1816.6 746.699 1816.75 746.745 1816.89 746.792C1818.5 747.3 1820.33 747.889 1822.46 748.624C1823.38 748.949 1824.29 749.268 1825.31 749.637C1828.45 750.768 1830.46 753.398 1829.92 755.543C1829.39 757.689 1826.62 758.571 1823.55 757.464C1821.99 756.904 1820.57 756.407 1819.21 755.941C1817.87 755.491 1816.66 755.101 1815.52 754.737C1815.38 754.692 1815.23 754.647 1815.09 754.602C1812.74 753.856 1810.55 753.174 1808.26 752.367C1807.49 752.098 1806.7 751.811 1805.98 751.544C1804.65 751.105 1803.14 750.673 1801.33 750.192C1800.97 750.094 1800.6 749.991 1800.22 749.892C1797.77 749.254 1794.96 748.557 1791.84 747.731C1786.7 746.37 1780.75 744.677 1772.9 741.997C1774.87 742.51 1775.11 742.458 1775.17 742.421C1775.19 742.366 1774.84 742.237 1774.38 742.094C1773.4 741.798 1771.93 741.427 1770.28 741.027C1767.34 740.321 1764.08 739.685 1760.83 739.103C1745.68 736.437 1731 734.672 1715.25 731.532C1713.12 731.104 1710.98 730.622 1708.78 730.12C1702.16 728.647 1694.22 726.865 1678.75 725.882C1677.6 725.81 1676.4 725.743 1675.15 725.683C1669.76 725.458 1663.58 725.261 1656.68 725.095C1650.02 724.926 1641.42 724.818 1639.36 725.071C1635.55 725.495 1617.83 729.678 1603.7 730.543C1588.8 731.752 1573.63 731.807 1557 731.352C1553.62 731.256 1550.15 731.082 1546.55 730.839C1539.73 730.362 1532.57 729.956 1524.03 729.578C1519.36 729.363 1514.24 729.151 1508.62 728.78C1497.88 728.106 1485.14 726.606 1472.49 723.916C1463.73 722.099 1454.99 720.825 1443.85 719.527C1434.33 718.382 1420.45 716.596 1406.93 710.369C1398.4 707.458 1387.88 705.565 1376.12 702.101C1375.49 701.919 1374.86 701.728 1374.21 701.532C1373.42 701.286 1372.61 701.03 1371.8 700.765C1368.48 699.679 1364.75 698.291 1360.62 696.403C1347.98 691.258 1328.66 684.929 1305.19 669.805C1300.3 666.398 1295.98 662.961 1292.22 659.614C1281.86 650.364 1273.53 642.743 1265.39 635.927C1262.59 633.711 1259.75 631.425 1256.84 629.022C1249.99 623.362 1242.32 618.104 1230.85 609.603C1228.33 607.725 1225.63 605.689 1222.7 603.417C1222.56 603.322 1222.34 603.167 1222.03 602.96C1218.97 600.238 1203.71 594.435 1184.96 577.288C1176.75 568.946 1164.63 559.52 1162.46 558.53C1160.76 558.012 1159.08 557.473 1157.44 556.924C1144.91 552.692 1135.27 549.034 1127.09 546.368C1124.58 545.541 1122.24 544.804 1120.16 544.193C1118.6 543.731 1117.18 543.339 1116.01 543.035C1099.19 538.642 1097.06 536.519 1089.73 533.685C1083.46 530.828 1067.05 525.885 1047.11 523.175C1035.07 521.489 1022.46 520.509 1010.75 520.482C1002.72 520.458 995.243 520.782 988.8 521.59C987.112 521.798 985.476 522.006 983.769 522.214C969.313 524.01 954.667 525.901 943.294 529.626C937.23 532.446 930.631 534.837 924.379 537.019C921.276 538.109 918.201 539.159 915.802 540.176C914.64 540.679 913.598 541.185 913.129 541.619C912.716 542.022 912.593 542.508 914.824 542.197C896.95 548.848 889.867 550.888 888.826 552.482C879.063 557.725 863.76 566.076 848.249 572.798C822.17 584.877 790.608 592.556 768.097 597.025C763.161 598.029 758.285 599.045 753.679 600.041C752.871 600.215 752.054 600.391 751.228 600.57C718.194 607.717 689.302 614.291 666.453 619.753C660.019 621.293 654.135 622.757 648.87 624.136C646.226 624.829 643.818 625.479 641.382 626.154C638.645 626.824 637.637 627.512 628.68 629.231C627.831 629.337 622.648 630.592 618.286 631.56C613.814 632.554 609.569 633.362 606.309 633.904C605.22 634.087 604.177 634.253 603.262 634.393C602.457 634.515 601.716 634.627 601.053 634.72C591.253 636.087 582.759 636.903 574.256 637.397C573.788 637.424 573.316 637.449 572.842 637.474C563.902 637.932 554.702 637.98 544.348 637.237C541.652 637.042 539.124 636.836 536.512 636.602C505.708 634.83 469.708 627.32 445.738 617.68C440.747 615.79 436.036 613.856 431.496 611.89C431.482 611.884 431.469 611.878 431.456 611.872C430.68 611.535 429.905 611.196 429.131 610.853C413.373 603.938 399.264 597.799 385.899 591.731C360.36 580.107 343.627 573.23 327.851 566.077C326.32 565.366 324.84 564.673 322.95 563.723C320.917 562.644 319.633 562.2 314.395 558.796C313.423 558.22 312.35 557.598 311.209 556.948C305.301 553.576 298.048 549.674 290.234 544.724C282.124 539.596 273.634 533.824 265.515 527.349C260.356 523.304 255.284 519.297 250.141 515.09C249.122 514.256 248.13 513.435 247.103 512.581C234.828 502.357 221.804 490.761 209.197 475.374C206.284 471.816 205.392 467.683 207.081 466.295C208.771 464.904 212.32 466.67 215.122 470.104C226.956 484.592 239.351 495.764 251.501 505.912C252.501 506.745 253.532 507.593 254.53 508.41C259.85 512.776 265.165 516.981 270.614 521.261C278.223 527.326 286.242 532.811 294.018 537.746C301.41 542.446 308.259 546.149 314.499 549.694C316.037 550.569 317.516 551.423 318.869 552.234C323.003 554.929 324.209 555.413 326.012 556.376C327.564 557.166 328.957 557.833 330.276 558.452C346.223 565.744 363.156 572.669 388.943 584.412C402.316 590.483 416.44 596.631 432.438 603.653C432.96 603.884 433.482 604.113 434.005 604.341C438.443 606.274 443.11 608.193 448.01 610.059C471.547 619.54 506.174 626.901 537.211 628.711C539.708 628.934 542.107 629.131 544.681 629.319C554.253 630.009 562.701 629.998 571.382 629.591C571.868 629.569 572.334 629.546 572.829 629.521C581.04 629.076 589.633 628.295 599.576 626.927C600.933 626.738 602.617 626.495 604.649 626.158C607.824 625.635 611.935 624.861 616.378 623.877C620.709 622.924 625.873 621.653 627.357 621.429C635.337 619.902 636.55 619.203 639.266 618.528C641.725 617.847 644.174 617.185 646.847 616.485C652.172 615.09 658.095 613.616 664.554 612.07C687.516 606.58 716.47 599.992 749.585 592.827C749.811 592.779 750.036 592.732 750.261 592.684C755.85 591.475 761.197 590.319 766.222 589.228C800.398 582.117 828.008 572.042 843.977 563.37C846.873 561.869 849.59 560.377 852.146 558.889C866.777 550.351 876.64 544.599 883.775 541.235C883.998 541.118 884.223 541.007 884.455 540.897C885.114 540.586 885.815 540.291 886.588 540.006C889.916 538.761 894.635 537.71 901.338 535.628C904.529 534.626 908.068 533.456 911.753 532.012C910.573 532.13 910.79 531.79 911.256 531.478C911.749 531.15 912.621 530.774 913.579 530.4C915.554 529.644 917.998 528.865 920.553 528.054C925.719 526.431 931.383 524.652 937.626 522.536C950.264 518.28 966.456 516.201 980.681 514.431C980.702 514.428 980.723 514.426 980.744 514.423C982.412 514.212 984.094 514.009 985.718 513.805ZM1858.7 763.004C1860.61 764.877 1860.55 767.443 1858.97 768.946C1857.37 770.443 1855 770.467 1853.23 768.72C1852.97 768.466 1852.7 768.207 1852.43 767.942C1848.85 764.511 1847.16 763.105 1843 760.561C1841.18 759.464 1840.07 756.874 1841.08 754.936C1842.08 752.994 1844.92 752.487 1846.95 753.7C1851.48 756.443 1853.9 758.383 1857.78 762.112C1858.1 762.416 1858.4 762.711 1858.7 763.004ZM972.394 473.976C975.806 473.634 979.191 475.127 979.897 477.292C980.595 479.455 978.409 481.477 974.961 481.814C973.153 481.993 970.166 482.325 966.152 482.786C953.45 484.819 928.405 485.204 900.17 493.6C889.725 498.056 877.954 500.603 868.164 506.474C855.969 513.539 843.004 522.113 828.747 529.758C814.276 537.799 797.652 545.059 780.952 550.35C773.781 552.665 767.361 554.594 761.243 556.372C760.339 556.635 759.43 556.903 758.513 557.177C734.1 564.519 714.122 574.632 666.248 586.084C663.687 586.7 661.115 587.319 658.588 587.928C652.958 589.287 647.411 590.648 641.876 592.061C639.122 592.764 636.383 593.478 633.655 594.209C630.677 594.951 628.949 595.681 623.175 596.774C599.927 603.05 565.994 604.823 539.621 601.492C508.773 599.277 473.816 591.003 444.915 576.487C409.447 559.012 376.795 545.101 337.963 524.234C324.948 515.162 308.303 506.024 293.864 493.506C271.791 474.505 248.607 453.693 231.911 427.336C222.973 413.639 212.613 398.924 204.912 382.281C190.942 356.143 174.992 322.323 168.384 290.412C166.224 281.472 164.024 272.484 161.874 263.431C158.318 248.47 155.096 233.293 152.495 217.928C149.378 197.342 149.262 179.664 145.206 164.715C142.403 153.225 133.708 141.964 123.826 128.174C117.813 119.753 110.853 112.313 102.734 105.047C100.169 102.746 97.3666 100.323 94.3482 97.8009C78.7095 84.8706 63.6407 67.6192 48.8753 53.0269C34.1185 38.2105 21.4382 25.6161 9.16017 19.343C-6.0826 11.3286 -17.7013 5.38778 -23.2153 3.31652C-26.0454 2.19302 -27.4713 -0.0556402 -26.91 -2.16849C-26.3899 -4.29402 -23.484 -5.30285 -20.3629 -4.06502C-14.3763 -1.80854 -2.54451 4.2524 12.5646 12.1985C26.2942 19.1696 39.7293 32.6582 54.2351 47.2078C69.4123 62.2051 84.3045 79.2414 99.3527 91.6668C102.309 94.1342 105.064 96.5089 107.627 98.7956C116.194 106.419 123.798 114.491 130.269 123.564C139.956 137.155 149.516 149.221 152.882 162.74C157.244 179.026 157.319 197.214 160.339 216.755C162.866 231.638 165.985 246.369 169.445 260.956C171.649 270.256 173.932 279.507 176.197 288.735C183.019 320.46 197.993 351.335 212.957 378.581C220.483 394.286 230.62 408.255 240.002 422.072C256.326 446.897 278.83 466.375 301.167 484.788C314.875 496.206 330.67 504.435 345.018 513.887C380.408 531.81 415.897 546.342 451.19 562.825C479.256 576.115 510.341 583.056 541.086 584.945C567.375 587.628 594.983 586.294 620.267 579.627C632.144 576.682 642.922 573.639 654.388 570.929C657.025 570.29 659.68 569.65 662.358 569.006C710.576 557.474 731.749 556.399 756.651 549.431C757.183 549.282 757.713 549.132 758.24 548.98C764.284 547.229 770.686 545.31 777.792 543.028C794.628 537.718 810.849 530.624 825.45 522.481C839.507 514.908 852.225 506.432 864.87 499.139C876.109 492.647 888.558 490.053 897.836 485.859C928.389 477.054 950.192 477.085 963.193 474.996C967.332 474.515 970.448 474.166 972.394 473.976ZM1136.12 496.807C1148.76 500.158 1161.95 505.092 1175.44 508.746C1194.92 514.392 1208.15 526.969 1220.7 538.605C1229.36 547.288 1241.52 552.259 1255.01 562.603C1257.57 564.707 1260.12 566.774 1262.68 568.805C1273.47 577.389 1284.11 585.277 1294.04 592.004C1301.24 596.893 1307.6 601.519 1313.43 605.56C1321.43 611.13 1328.22 615.901 1334.39 620.03C1344.85 626.878 1354.77 632.223 1364.13 637.819C1364.29 637.912 1364.45 638.005 1364.61 638.098C1371.12 641.947 1377.69 645.802 1384.93 650.383C1393.62 656.055 1405.14 660.24 1419.47 666.5C1422.06 667.653 1424.72 668.9 1427.44 670.288C1441.68 677.379 1461.66 677.661 1481.7 681.947C1494.55 684.462 1507.98 684.953 1521.72 684.669C1521.75 684.669 1521.78 684.67 1521.81 684.67C1530.92 684.525 1540.17 684.13 1549.39 684.078C1578.95 683.891 1605.31 680.366 1625.68 675.126C1627.34 674.789 1629.06 674.458 1630.86 674.178C1647.71 672.199 1660 673.301 1673.02 672.874C1724.22 672.528 1762.36 675.647 1789.88 683.437C1800.94 687.815 1809.83 692.06 1816.73 695.813C1824.47 700.005 1832.32 704.164 1840.36 708.303C1855.36 716.129 1871.07 722.751 1883.2 734.427C1892.35 742.854 1901.05 752.333 1903.03 763.558C1903.45 765.198 1902.89 768.424 1904.91 772.452C1905.03 772.706 1905.54 773.318 1905.74 773.525C1914.26 782.539 1922.4 793.009 1932.94 801.711C1933.3 801.972 1934.47 802.458 1934.89 802.612C1938.51 804.125 1942.21 804.726 1945.16 805.215C1947.68 806.04 1947.54 807.436 1945.79 808.747C1944.06 809.951 1939.8 811.632 1932.63 810.05C1931.79 809.745 1929.46 808.775 1928.74 808.254C1926.36 807.036 1923.96 805.359 1921.87 803.272C1921.53 802.948 1921.18 802.62 1920.84 802.293C1917.62 799.179 1914.98 796.373 1911.47 792.615C1906.29 787.297 1902.85 783.623 1899.72 780.585C1899.59 780.464 1899.46 780.332 1899.31 780.19C1898.74 779.571 1897.21 777.744 1896.84 776.986C1894.06 772.486 1893.87 765.239 1893.82 765.576C1893.11 760.175 1887.96 751.236 1877.18 740.986C1867.05 730.338 1851.69 722.914 1837.22 715.385C1826.96 710.05 1817.97 705.541 1811.72 702.205C1805.56 698.891 1797.47 695.648 1787.26 692.476C1763.82 687.578 1724.43 687.704 1673.7 689.687C1661.02 690.442 1646.34 689.883 1633.75 691.447C1632.25 691.68 1630.7 691.978 1629.08 692.308C1607.53 697.834 1578.21 695.785 1548.83 693.302C1540.2 692.592 1531.41 692.451 1522.48 692.597C1522.38 692.598 1522.27 692.6 1522.16 692.601C1508.23 692.902 1493.68 692.414 1480 689.701C1460.25 685.374 1441.28 685.698 1423.83 677.342C1421.31 676.054 1418.81 674.88 1416.35 673.781C1402.78 667.811 1390.81 663.533 1381.21 657.425C1373.57 652.588 1366.52 648.481 1359.62 644.403C1359.48 644.317 1359.33 644.23 1359.19 644.144C1350.11 638.734 1340.9 633.73 1330.37 626.873C1324.04 622.627 1317.12 617.766 1309.02 612.124C1303.1 608.023 1296.71 603.386 1289.71 598.636C1279.36 591.629 1268.39 583.484 1257.28 574.636C1254.88 572.727 1252.48 570.788 1250.09 568.818C1238.34 559.641 1225.09 554.08 1215.33 544.424C1203.1 532.965 1190.14 521.163 1173.44 516.404C1159.57 512.641 1146.58 507.791 1134.53 504.579C1131.1 503.651 1128.54 501.26 1128.86 499.091C1129.19 496.926 1132.53 495.848 1136.12 496.807ZM1150.48 449.612C1167.1 453.335 1179.63 456.998 1188.54 458.494C1227.9 469.609 1242.62 486.472 1257.69 498.567C1259.17 500.076 1263.28 500.126 1289.75 518.737C1301.24 527.728 1313.46 536.831 1324.89 544.713C1341.24 555.957 1352.44 564.865 1362.74 571.698C1370.13 577.15 1390.62 586.226 1412.13 598.921C1414.88 601.605 1426.2 606.406 1440.86 613.674C1444.65 615.329 1448.84 617.267 1453.36 619.624C1445.25 618.06 1472.49 623.36 1493.5 628.128C1502.32 630.263 1509.65 631.097 1523.08 631.531C1523.51 631.549 1523.93 631.566 1524.36 631.584C1532.73 631.859 1542.66 632.164 1552.51 632.909C1566.14 633.974 1579.02 634.506 1589.49 634.222C1594.71 634.084 1599.23 633.751 1603.08 633.253C1607.09 632.737 1609.89 632.142 1616.93 630.675C1618.77 630.302 1620.94 629.883 1623.4 629.487C1637.9 627.347 1645.29 627.904 1652.08 627.669C1658.82 627.578 1665.02 627.472 1671.18 627.314C1726.7 626.762 1756.73 626.077 1803.45 636.645C1815.98 641.05 1826.87 645.73 1834.93 649.973C1846.48 656.051 1854.1 660.477 1860.13 663.769C1869.03 668.706 1874.74 671.279 1882.64 675.314C1882.99 675.498 1883.35 675.69 1883.72 675.882C1883.74 675.889 1883.77 675.896 1883.8 675.902C1884.3 676.05 1884.71 676.2 1884.92 676.282C1885.36 676.454 1885.7 676.616 1885.83 676.676C1886.13 676.816 1886.37 676.945 1886.46 676.991C1886.81 677.173 1887.23 677.403 1887.49 677.55C1889.82 678.838 1897.95 683.769 1904.1 688.82C1909.1 692.871 1912.44 696.246 1915.36 699.408C1916.04 700.155 1916.69 700.89 1917.38 701.665C1917.72 702.054 1918.06 702.444 1918.4 702.845C1921.47 706.433 1924.88 710.321 1930.09 717.512C1933.29 721.961 1934.02 726.802 1931.8 727.354C1929.58 727.914 1925.51 724.63 1922.58 720.707C1917.5 713.9 1914.08 710.055 1911.15 706.688C1910.83 706.322 1910.51 705.956 1910.18 705.591C1910.1 705.498 1910.02 705.406 1909.94 705.315C1906.72 701.789 1903.51 698.52 1898.41 694.432C1890.62 688.515 1884.57 685.291 1879.58 682.663C1871.88 678.693 1865.88 675.977 1856.9 671.047C1850.36 667.512 1842.1 662.727 1829.58 656.223C1822.3 652.448 1812.61 648.295 1801.24 644.265C1758.46 634.41 1727.2 634.575 1671.5 635.221C1665.32 635.38 1659.07 635.488 1652.32 635.578C1645.52 635.801 1638.2 635.297 1624.7 637.292C1622.41 637.658 1620.38 638.051 1618.61 638.408C1611.79 639.826 1608.57 640.518 1604.26 641.077C1600.08 641.624 1595.29 641.979 1589.85 642.126C1578.94 642.428 1565.83 641.881 1552.02 640.807C1542.35 640.073 1532.6 639.77 1524.19 639.495C1523.75 639.48 1523.31 639.466 1522.87 639.451C1509.4 639.023 1501.18 638.139 1491.8 635.864C1470.96 631.037 1444.75 626.334 1449.76 626.668C1445.46 624.425 1441.45 622.566 1437.8 620.97C1423.18 614.703 1411.66 610.887 1407.17 608.302C1385.71 597.135 1365.46 589.595 1355.57 583.926C1344.05 577.319 1332 568.592 1316.11 558.165C1303.9 550.265 1291.29 541.095 1279.48 531.699C1256.81 515.504 1250.4 513.805 1247.18 509.946C1233.18 497.748 1219.92 481.534 1185.43 470.437C1176.15 467.599 1164.36 462.658 1148.98 457.415C1144.49 456.189 1139.7 454.949 1133.96 453.832C1135.6 454.558 1122.44 450.293 1113.57 448.299C1104.07 446.063 1095.3 444.603 1087.25 443.484C1058.34 439.649 1035.14 438.895 1013.51 438.773C992.791 438.784 973.682 439.339 954.404 441.344C950.474 441.762 943.61 442.061 933.739 442.534C928.779 442.781 923.119 443.06 916.236 443.605C908.785 444.454 903.097 443.98 886.591 448.569C885.747 448.9 884.643 449.274 883.218 449.695C877.362 451.597 863.701 453.792 847.858 461.259C847.706 461.333 847.555 461.407 847.403 461.481C832.636 468.737 820.785 475.851 807.338 482.51C794.781 488.852 783.852 493.736 769.454 498.558C763.19 500.671 757.349 502.49 751.686 504.184C749.835 504.737 748.017 505.273 746.16 505.808C722.999 512.461 702.173 518.209 656.066 529.222C652.436 530.093 648.658 530.997 644.752 531.933C639.32 533.237 633.692 534.604 627.744 536.108C624.788 536.856 621.721 537.648 618.644 538.466C617.124 538.869 615.545 539.296 614.234 539.641C613.593 539.81 613.021 539.955 612.808 539.999C612.569 540.051 612.886 539.952 613.519 539.835C603.654 541.578 599.192 542.895 594.098 543.694C589.184 544.52 584.273 545.023 578.982 545.261C568.404 545.737 556.678 545.102 544.728 543.802C511.143 541.149 489.326 533.557 469.213 523.583C467.167 522.579 465.218 521.623 463.324 520.693C437.818 508.18 423.563 500.977 413.553 495.785C410.784 494.349 408.349 493.07 406.087 491.888C400.245 488.83 395.745 486.474 389.806 483.533C385.562 481.429 381.514 479.424 377.72 477.512C375.861 476.573 374.055 475.651 372.529 474.842C371.783 474.447 371.083 474.065 370.669 473.824C370.462 473.705 370.321 473.616 370.384 473.644C370.42 473.661 370.514 473.712 370.699 473.821C370.924 473.956 371.275 474.17 371.841 474.552C353.035 461.943 341.791 456.226 331.804 448.215C318.821 437.752 305.151 426.891 293.036 414.352C291.11 412.347 290.904 409.448 292.47 407.917C294.041 406.387 296.699 406.7 298.507 408.588C310.103 420.656 323.772 431.56 336.898 442.133C346.147 449.546 356.74 454.927 376.302 468.009C375.594 467.531 375.14 467.252 374.829 467.064C374.577 466.914 374.425 466.83 374.341 466.785C374.187 466.704 374.277 466.765 374.438 466.86C374.77 467.057 375.433 467.419 376.143 467.797C377.606 468.574 379.414 469.497 381.259 470.429C385.055 472.342 389.108 474.35 393.393 476.474C399.588 479.54 404.372 482.051 410.335 485.171C412.545 486.327 414.92 487.568 417.54 488.927C427.383 494.033 441.494 501.164 466.891 513.623C468.694 514.509 470.566 515.428 472.519 516.385C492.182 526.068 511.979 533.21 545.427 535.913C557.102 537.191 568.469 537.799 578.479 537.356C583.491 537.136 588.05 536.674 592.651 535.907C597.468 535.163 601.563 533.919 612.195 532.026C611.269 532.193 610.729 532.346 610.862 532.321C610.964 532.305 611.501 532.171 612.122 532.008C613.398 531.672 615.001 531.238 616.535 530.831C619.648 530.003 622.751 529.201 625.735 528.446C631.737 526.928 637.397 525.553 642.851 524.243C646.714 523.317 650.447 522.424 654.034 521.564C700.442 510.478 720.818 504.834 744.302 498.085C745.8 497.652 747.222 497.233 748.732 496.785C754.322 495.118 760.162 493.305 766.364 491.224C780.907 486.375 791.364 481.689 804.06 475.274C817.023 468.842 828.39 462.033 843.165 454.715C843.642 454.48 844.121 454.246 844.604 454.012C860.992 446.31 875.017 443.969 880.696 442.162C882.373 441.678 883.532 441.278 884.296 440.959C902.467 435.947 907.885 436.588 915.457 435.693C922.31 435.145 927.863 434.87 932.601 434.629C942.045 434.169 948.244 433.894 951.65 433.533C971.967 431.394 992.153 430.844 1013.78 430.844C1036.03 430.99 1059.64 431.767 1089.13 435.742C1097.39 436.911 1106.28 438.415 1115.99 440.729C1125.07 442.819 1138.53 447.125 1135.52 446.067C1141.29 447.191 1146.05 448.413 1150.48 449.612ZM221.976 253.5C222.767 256.792 221.729 260.035 219.642 260.722C217.555 261.409 215.201 259.266 214.402 255.952C210.181 238.466 207.506 226.16 205.573 216.502C205.123 214.253 204.715 212.156 204.34 210.173C202.308 199.312 201.798 189.439 200.32 176.109C199.462 168.466 198.289 160.359 196.082 151.63C189.476 125.884 175.036 109.515 166.852 97.3879C158.989 86.2691 149.676 76.2309 140.816 68.0896C136.395 64.0081 132.036 60.2816 127.794 56.8056C112.602 44.2716 98.3523 28.4218 83.884 15.0183C73.3419 4.99857 61.8303 -5.95046 52.1881 -13.0317C48.6497 -15.6977 46.4831 -19.2562 47.7028 -21.0726C48.9156 -22.8867 53.2517 -22.1389 56.9826 -19.3284C67.0179 -11.9524 78.9363 -0.600027 89.2449 9.1981C104.011 22.8946 118.278 38.7181 132.796 50.6755C136.977 54.1018 141.292 57.7836 145.697 61.8295C154.973 70.3031 164.938 80.9724 173.288 92.7826C181.273 104.714 196.544 121.787 203.753 149.658C206.074 158.828 207.285 167.208 208.168 175.013C209.684 188.63 210.206 198.593 212.192 208.998C212.483 210.534 212.796 212.143 213.133 213.844C215.026 223.377 217.677 235.66 221.976 253.5Z" fill="#A10005"/>
</svg>
